<svg xmlns="http://www.w3.org/2000/svg" width="29.695" height="38.595" viewBox="0 0 29.695 38.595"><defs><style>.a,.b{fill:#fff;}.a{fill-rule:evenodd;}</style></defs><g transform="translate(-295.04 -471.261)"><path class="a" d="M298.145,471.261h0a3.114,3.114,0,0,0-3.105,3.105v32.384a3.114,3.114,0,0,0,3.105,3.105h0a3.115,3.115,0,0,0,3.105-3.105V494.523a3.105,3.105,0,1,1,6.211,0v8.568a3.105,3.105,0,0,0,6.211,0V485.033a4.442,4.442,0,0,1,2.316-.651c2.726,0,3.788,2.55,5.642,2.55a3.105,3.105,0,1,0,0-6.211c-2.053,0-3.325,2.55-5.642,2.55a4.44,4.44,0,0,1-2.316-.652v-4.593a3.105,3.105,0,0,0-6.211,0v8.568a3.105,3.105,0,1,1-6.211,0V474.366a3.114,3.114,0,0,0-3.105-3.105"/><rect class="b" width="6.324" height="19.666" rx="3.162" transform="translate(318.205 487.688)"/></g></svg>