<svg xmlns="http://www.w3.org/2000/svg" width="15.432" height="15.432" viewBox="0 0 15.432 15.432"><defs><style>.a{fill:#00044c;}.b{fill:#18c505;}</style></defs><path class="a" d="M2.75,122.074H5.271l2.141,1.942a.452.452,0,0,0,.608,0l2.141-1.942h2.521a2.753,2.753,0,0,0,2.75-2.75V114.83a2.753,2.753,0,0,0-2.75-2.75.452.452,0,1,0,0,.9,1.848,1.848,0,0,1,1.846,1.846v4.494a1.848,1.848,0,0,1-1.846,1.846h-2.7a.452.452,0,0,0-.3.117l-1.967,1.784-1.967-1.784a.452.452,0,0,0-.3-.117H2.75A1.848,1.848,0,0,1,.9,119.324V114.83a1.848,1.848,0,0,1,1.846-1.846.452.452,0,0,0,0-.9A2.753,2.753,0,0,0,0,114.83v4.494A2.753,2.753,0,0,0,2.75,122.074Z" transform="translate(0 -108.702)"/><path class="a" d="M136.106,0a3.726,3.726,0,1,0,3.726,3.726A3.73,3.73,0,0,0,136.106,0Zm0,6.548a2.822,2.822,0,1,1,2.822-2.822A2.825,2.825,0,0,1,136.106,6.548Z" transform="translate(-128.39)"/><path class="a" d="M87.683,315.455a.452.452,0,0,0,0,.9h1.884a.452.452,0,0,0,0-.9Z" transform="translate(-84.602 -305.947)"/><path class="a" d="M210.2,315.455a.452.452,0,0,0,0,.9h1.884a.452.452,0,0,0,0-.9Z" transform="translate(-203.422 -305.947)"/><path class="a" d="M332.256,315.907a.452.452,0,0,0,.452.452h1.884a.452.452,0,0,0,0-.9h-1.884A.452.452,0,0,0,332.256,315.907Z" transform="translate(-322.242 -305.947)"/><path class="b" d="M198.654,70.615a.452.452,0,0,0-.632.1l-1.322,1.8-.712-.969a.452.452,0,0,0-.729.535l1.076,1.465a.452.452,0,0,0,.729,0l1.686-2.3A.452.452,0,0,0,198.654,70.615Z" transform="translate(-189.29 -68.402)"/></svg>