<svg xmlns="http://www.w3.org/2000/svg" width="15.116" height="15.116" viewBox="0 0 15.116 15.116"><defs><style>.a{fill:#00044c;}.b{fill:#18c505;}</style></defs><g transform="translate(0 0)"><path class="a" d="M14.986,6.184,13.121,4.319V.443A.443.443,0,0,0,12.678,0H2.438A.443.443,0,0,0,2,.443V4.319C-.044,6.358,0,6.253,0,6.5v8.176a.443.443,0,0,0,.443.443h14.23a.443.443,0,0,0,.443-.443c0-.059,0-8.181,0-8.214A.445.445,0,0,0,14.986,6.184Zm-1,.255-.868.615V5.571ZM12.235.886V7.681L9.167,9.853A2.618,2.618,0,0,1,6.2,9.886L2.881,7.622V.886ZM2,7.019l-.861-.587L2,5.571ZM14.23,14.23H.886v-6.9L5.019,10.15,2.6,12.571a.443.443,0,1,0,.626.626l2.541-2.541a3.488,3.488,0,0,0,3.792,0L12.1,13.2a.443.443,0,0,0,.626-.626l-2.43-2.43L14.23,7.353Z" transform="translate(0)"/><path class="b" d="M138.023,70.886h6.106a.443.443,0,0,0,0-.886h-6.106a.443.443,0,0,0,0,.886Z" transform="translate(-133.518 -67.933)"/><path class="b" d="M138.023,140.886h6.106a.443.443,0,0,0,0-.886h-6.106a.443.443,0,0,0,0,.886Z" transform="translate(-133.518 -135.867)"/><path class="b" d="M138.023,210.886h6.106a.443.443,0,0,0,0-.886h-6.106a.443.443,0,0,0,0,.886Z" transform="translate(-133.518 -203.8)"/></g></svg>