<svg xmlns="http://www.w3.org/2000/svg" width="15.429" height="15.429" viewBox="0 0 15.429 15.429"><defs><style>.a{fill:#18c505;}.b{fill:#00044c;}</style></defs><g transform="translate(-7.571 -6)"><path class="a" d="M10.726,18.433l.566-3.206.613.519,5.988-4.526-4.809,6.129.754.707Z"/><g transform="translate(7.571 6)"><path class="b" d="M14.82.029.3,5.379a.452.452,0,0,0-.163.744L3.044,9.034l-.56,3.391a.452.452,0,0,0,.52.52l3.391-.56L9.306,15.3a.452.452,0,0,0,.744-.163L15.4.609a.452.452,0,0,0-.58-.58ZM3.479,11.951l.352-2.13.033.033a.453.453,0,0,0,.592.041L8.9,6.529c-3.615,4.776-3.378,4.46-3.4,4.5a.452.452,0,0,0,.076.539l.032.032Zm5.967,2.207L6.494,11.206l5.1-6.741a.452.452,0,0,0-.636-.63l-6.737,5.1L1.271,5.983,14.214,1.215Z" transform="translate(0 0)"/></g></g></svg>