<svg xmlns="http://www.w3.org/2000/svg" width="18.204" height="18.159" viewBox="0 0 18.204 18.159"><defs><style>.a{fill:#18c505;}.b{fill:#fff;}.c{fill:#ffdbd3;}.d{fill:#ffd1c7;}.e{fill:#00044c;}</style></defs><g transform="translate(0 -0.634)"><g transform="translate(0.266 0.9)"><g transform="translate(5.038 6.828)"><circle class="a" cx="1.636" cy="1.636" r="1.636" transform="translate(2.176)"/><circle class="b" cx="3.788" cy="3.788" r="3.788" transform="translate(0.024 1.602)"/><g transform="translate(0 6.995)"><path class="b" d="M149.478,401.515a3.812,3.812,0,0,1,7.624,0Z" transform="translate(-149.478 -397.703)"/></g><path class="a" d="M237.62,397.7a3.831,3.831,0,0,0-.71.066,3.813,3.813,0,0,1,3.1,3.746h1.419A3.812,3.812,0,0,0,237.62,397.7Z" transform="translate(-233.808 -390.708)"/><g transform="translate(1.213 4.475)"><path class="c" d="M183.8,326.7a2.6,2.6,0,1,0,4.925,0Z" transform="translate(-183.662 -326.705)"/></g><path class="d" d="M240.208,326.7h-1.419a2.6,2.6,0,0,1-1.753,3.35,2.6,2.6,0,0,0,3.172-3.35Z" transform="translate(-233.929 -322.23)"/></g></g><g transform="translate(0 0.634)"><path d="M380.31,89.511a.266.266,0,1,0-.041-.374A.267.267,0,0,0,380.31,89.511Z" transform="translate(-366.72 -85.9)"/><path d="M347.04,67.487a.276.276,0,0,0,.36-.109.266.266,0,1,0-.36.109Z" transform="translate(-334.591 -64.632)"/><path d="M372.591,428.029a.266.266,0,1,0,.372.06A.266.266,0,0,0,372.591,428.029Z" transform="translate(-359.264 -412.816)"/><path d="M403.092,401.859a.266.266,0,1,0,.008.376A.266.266,0,0,0,403.092,401.859Z" transform="translate(-388.355 -387.551)"/><path d="M458.385,297.126a.266.266,0,0,0-.108.521.284.284,0,0,0,.314-.207A.266.266,0,0,0,458.385,297.126Z" transform="translate(-441.812 -286.6)"/><path d="M446.651,335.3a.266.266,0,1,0-.2.491.278.278,0,0,0,.348-.143A.265.265,0,0,0,446.651,335.3Z" transform="translate(-430.448 -323.409)"/><path d="M462.62,257.424a.266.266,0,1,0-.006.532h0a.266.266,0,0,0,0-.532Z" transform="translate(-445.946 -248.313)"/><path d="M427.953,370.6a.266.266,0,1,0,.076.369A.267.267,0,0,0,427.953,370.6Z" transform="translate(-412.371 -357.428)"/><path d="M117.126,89.568a.266.266,0,1,0-.208-.1A.265.265,0,0,0,117.126,89.568Z" transform="translate(-112.714 -85.899)"/><path d="M150.434,67.519a.263.263,0,0,0,.126-.032.266.266,0,1,0-.126.032Z" transform="translate(-144.84 -64.632)"/><path d="M41.733,300.647a.266.266,0,0,0-.519.117.283.283,0,0,0,.318.2A.266.266,0,0,0,41.733,300.647Z" transform="translate(-39.745 -289.802)"/><path d="M53.779,338.413a.267.267,0,0,0-.138.35.279.279,0,0,0,.35.138.266.266,0,0,0-.213-.488Z" transform="translate(-51.716 -326.407)"/><path d="M36.523,261.353a.27.27,0,1,0-.007,0Z" transform="translate(-34.963 -251.589)"/><path d="M73.02,373.411a.266.266,0,1,0,.37.071A.266.266,0,0,0,73.02,373.411Z" transform="translate(-70.317 -360.14)"/><path d="M98.349,404.3a.266.266,0,1,0,.376,0A.266.266,0,0,0,98.349,404.3Z" transform="translate(-94.783 -389.901)"/><path d="M129.23,430.009a.266.266,0,1,0,.066.371A.266.266,0,0,0,129.23,430.009Z" transform="translate(-124.241 -414.728)"/><path class="e" d="M373.979,103.361a2.512,2.512,0,1,0,2.512,2.512A2.515,2.515,0,0,0,373.979,103.361Zm0,4.491a1.979,1.979,0,1,1,1.979-1.979A1.982,1.982,0,0,1,373.979,107.852Z" transform="translate(-358.287 -99.716)"/><path class="a" d="M407.849,148.018l-1.276,1.163-.427-.389a.266.266,0,1,0-.359.393l.606.553a.266.266,0,0,0,.359,0l1.456-1.327a.266.266,0,1,0-.359-.393Z" transform="translate(-391.305 -142.722)"/><path class="e" d="M2.5,103.91a2.476,2.476,0,0,0-1.126.268.266.266,0,0,0,.24.475,1.948,1.948,0,0,1,.886-.211,1.97,1.97,0,1,1-1.97,1.97,1.947,1.947,0,0,1,.216-.9.266.266,0,1,0-.474-.242A2.475,2.475,0,0,0,0,106.412a2.5,2.5,0,1,0,2.5-2.5Z" transform="translate(0 -100.246)"/><path class="a" d="M41.7,147.5a.266.266,0,0,0,.376,0l.571-.571.571.571a.266.266,0,1,0,.376-.376l-.571-.571.571-.571a.266.266,0,0,0-.376-.376l-.571.571-.571-.571a.266.266,0,0,0-.376.376l.571.571-.571.571A.266.266,0,0,0,41.7,147.5Z" transform="translate(-40.142 -140.388)"/><path class="e" d="M188.561,5.672a2.519,2.519,0,1,0-2.519-2.519A2.522,2.522,0,0,0,188.561,5.672Zm0-4.506a1.987,1.987,0,1,1-1.987,1.987A1.989,1.989,0,0,1,188.561,1.166Z" transform="translate(-179.441 -0.634)"/><path class="e" d="M229.126,64.666h1.468a.266.266,0,0,0,0-.532h-1.468a.266.266,0,1,0,0,.532Z" transform="translate(-220.74 -61.881)"/><path class="e" d="M149.09,201.42a4.057,4.057,0,0,0,.543-4.6.266.266,0,0,0-.469.251,3.524,3.524,0,0,1-.455,3.977,4.082,4.082,0,0,0-.57-.409,2.866,2.866,0,0,0,.638-2.91.266.266,0,0,0-.252-.18H143.6a.266.266,0,0,0-.252.18,2.866,2.866,0,0,0,.634,2.906,4.082,4.082,0,0,0-.576.412,3.5,3.5,0,0,1-.87-2.318,3.559,3.559,0,0,1,3.521-3.521,3.52,3.52,0,0,1,2.3.859.266.266,0,0,0,.348-.4,4.044,4.044,0,0,0-.758-.519,1.9,1.9,0,1,0-3.789,0,4.053,4.053,0,0,0-1.138,6.273,4.072,4.072,0,0,0-1.045,2.727.266.266,0,0,0,.532,0,3.566,3.566,0,0,1,1.9-3.141,2.864,2.864,0,0,0,3.3,0,3.566,3.566,0,0,1,1.893,3.138.266.266,0,0,0,.532,0,4.064,4.064,0,0,0-.648-2.206A4.116,4.116,0,0,0,149.09,201.42Zm-3.033-7.814a1.372,1.372,0,0,1,1.369,1.308,4.057,4.057,0,0,0-2.737,0A1.372,1.372,0,0,1,146.057,193.606Zm-2.333,5.054a2.333,2.333,0,0,1,.073-.579h4.529a2.337,2.337,0,1,1-4.6.579Z" transform="translate(-136.941 -186.246)"/></g></g></svg>